/* XPM */
static char *_30b3f15ae484e2acc007dc0984c2bd0TUg1uIXR5cECWmKl[] = {
/* columns rows colors chars-per-pixel */
"32 32 39 1 ",
"  c #6C6F1E",
". c #706F1D",
"X c #6D711E",
"o c #73731E",
"O c #76791F",
"+ c #716F20",
"@ c #6E7222",
"# c #737523",
"$ c #757624",
"% c #767724",
"& c #747821",
"* c #777920",
"= c #767823",
"- c #727824",
"; c #737824",
": c #757924",
"> c #777825",
", c #777A25",
"< c #787821",
"1 c #797B20",
"2 c #7A7923",
"3 c #787B22",
"4 c #7B7A23",
"5 c #797A24",
"6 c #787B24",
"7 c #7B7B25",
"8 c #7D7B24",
"9 c #7C7A25",
"0 c #7A7C25",
"q c #7C7D24",
"w c #7E7D24",
"e c #7E7D26",
"r c #797E29",
"t c #817F23",
"y c #7A8025",
"u c #7F8124",
"i c #7E8025",
"p c #828124",
"a c #838325",
/* pixels */
"q0:::######$::*:$#####++$+@222*:",
"05***####$$#&**$$######++@@@***5",
"22*0*##***$&#**#$$+###o$@#$55::2",
"222O:*:*5:2&#*$#$5$+##&$$5q505:*",
"2:000qqq02O5:<$$@$q*:5&$>775$$:$",
"O0yyuaaapqOO5&2$$5005::$>>5:#::8",
"205yuqqa0055qq2*$2525:*&@#::#0:8",
"0ueaqq8q2255qtq555052*$:@@##::$#",
"00Opuqq*5O0pqae822&5*$*:##&##$##",
"upppuq0252u0qaq522:*::*:#:&O*###",
"qt4O00222r00qe8522&2:$*$#&$###@&",
"qO20*2:5*6uqtq8*OO:<$&##&$5O62-#",
"q0*##-$$##5q555*:2*:###:$&:oOOu#",
"p0*##:5$#-5a5:#*55:##$-*&>&:&0u@",
"0OO*$555*:0qq2$$0r$$8:#$>&###$qr",
"2O:2*****:0-q$50q:#0q:$#####+$55",
":*&**O20::q5u:aqq05r5>$#####  #<",
"5:-&&0Oq55qq0050qq00$<2####&. ##",
"5:O:0Oq0qquqqr505$5:##::$<#>##$o",
"y0O020quqqqq205::&#$&5:5>>$&2$2<",
"qrqqqqqqqqt25*:$o$   @:5$55:25>5",
"aqiiuOqqq052*:&#$&#@#&&0$555*5re",
"00rr0q02:$**5*$*$2o&$$0q55#:$0qu",
"q5*2:*O**$:*:*:OO2&<qa0qq$@$50qq",
"q5$$$$$:$$@-::22Oq:0uq:*5>@$0:00",
"q5##+$#:$$##:522tq500**0$0005:OO",
"85$$####$@@$5q02*20050:000yyy042",
"85:$.###$@$$50:$*2***5yy0050qq0O",
"::&###+$$@@-:$##***$O&2yyu0O0qq2",
"2<&###+#@@@#:######&O#-5yu022O5O",
"*###o@@####:-:*#####&##$0q52$&&$",
"##&:##$#$$5r5:*######$:&O022:#&&"
};
