/* XPM */
static char *f9e9298cdfe54fac906b1e50ef663d5flxLeUKQVWbGD2Gsj[] = {
/* columns rows colors chars-per-pixel */
"32 32 71 1 ",
"  c #2A7DA7",
". c #2C7FA7",
"X c #2D7FA7",
"o c #277EAB",
"O c #277FAD",
"+ c #287FAA",
"@ c #2C7DA8",
"# c #2C7FA9",
"$ c #2E7FAA",
"% c #2E7FAC",
"& c #2B83A7",
"* c #2D82A7",
"= c #2880A8",
"- c #2881AB",
"; c #2B83AB",
": c #2F82AA",
"> c #2C84A8",
", c #2F84A9",
"< c #2D85AB",
"1 c #2C86AB",
"2 c #2881AD",
"3 c #2B82AF",
"4 c #2E83AC",
"5 c #2884AD",
"6 c #2885AE",
"7 c #2A86AF",
"8 c #2D86AE",
"9 c #2F87AF",
"0 c #3183A9",
"q c #3083AB",
"w c #3085AA",
"e c #3284AA",
"r c #3186AB",
"t c #3083AD",
"y c #3184AC",
"u c #3287AE",
"i c #2586B3",
"p c #2587B4",
"a c #2786B4",
"s c #2C83B0",
"d c #2B87B0",
"f c #2D86B0",
"g c #2C87B3",
"h c #2887B5",
"j c #278AB4",
"k c #2489B7",
"l c #2F88B2",
"z c #2889B4",
"x c #2A8AB4",
"c c #2B8BB5",
"v c #2A89B7",
"b c #288AB7",
"n c #2D8AB5",
"m c #2F8AB7",
"M c #2789B8",
"N c #258AB8",
"B c #278CBA",
"V c #288AB9",
"C c #2C8BB9",
"Z c #2B8CB9",
"A c #2D8CB8",
"S c #2D8EBB",
"D c #3084B0",
"F c #3087B2",
"G c #3487B1",
"H c #3687B2",
"J c #3087B4",
"K c #3089B3",
"L c #3088B6",
"P c #3189B7",
"I c #328BB7",
/* pixels */
"vvjjjjaaaMjMMMNNNkjiaMjMjMjZMvMZ",
"ZvxxjiMjjkaMBMNNNjajjaMjMMAAZVvv",
"vxxvjaaaaaaMMVVjkajpjMjjMVCVSSZZ",
"vvxjjajaaajjMMvjjMjMMajjjVvCZZZZ",
"jjjaiiaaivijvVvvMjvjijvjvxvZAAZZ",
"ajajijajjjvjvjvhjax7djivxxxvxAAA",
"ajaaijjajjxvvxhnVjajjaVVvxvnxllA",
"aajajijjjvlijvjvvvvjndfjxvnnAZZl",
"MvijijjjvxxvvxxnvnnvvvngjngCInnC",
"MVjjjjjvxxjvvvnaxjvnnVnCnnCfnnnn",
"vxVvvjj7xvvjnnCnnjfvhFngdJCPCggI",
"jvvvvijvfhnjVngnnijvnfggIIPPJJCh",
"xnvvvxxnvvvvFxnhKnvlxdnICIJPIPgP",
"nnvvvjvnvxVnVfghxffjfxfnPgIPJJgJ",
"jxjdj7Fvlfxf8fhdx7dKFlFJfJJJgJgP",
"fv8777i7jx8jdhfg857xFFPJgJJgIJgg",
"f7777i55x57x77777778FllFfFFDgJgg",
"f77375555555;75777d8ffff4FfJJgJg",
"788d737;;===;3338888888DFgJFFffF",
"8f887:3;;3;3;7733;d8fy8FyfFFFfff",
":484;<:;;;d88:77;88:8yfyPGwlFFff",
"::44:;:3;78q<<<:;88888yywyFPFfff",
"#*#::::::<<:<<<<<<:8qw:4qy8yFy8f",
":*  **;:<::<<<<<<:w:<q:444q8F8FF",
".*#.q.q.*::;:::5;:<:qqwwy4yyF88f",
".q##.... ;&:;&:;<;&<qwq<yqyyyF88",
" #@@##.q;:33;:&*&&<<;:0><qwwKey9",
"y#%##*.$:34s3::*>&7;&&>0wwwww99y",
"D%%##..q;373<;5*05<<<wq0ewwwwuru",
"D%y##q&4;33:3;<:*:<<we00eww0ewyy",
"HHFy7::;;7335o&=&:0wew0qeeq0ww9u",
"HHHHy::;333OOOo  qwwwe0eeeewwwuu"
};
