/* XPM */
static char *_793c800298e40d8b85459061776107eOkaXv9DAnfckHqJ9[] = {
/* columns rows colors chars-per-pixel */
"32 32 120 2 ",
"   c #4D652D",
".  c #4E682F",
"X  c #51672F",
"o  c #546C2E",
"O  c #4F6330",
"+  c #4F6A32",
"@  c #526632",
"#  c #556D33",
"$  c #586E35",
"%  c #566F38",
"&  c #586F39",
"*  c #567135",
"=  c #5A7334",
"-  c #5E7936",
";  c #567238",
":  c #56713A",
">  c #577039",
",  c #537038",
"<  c #597038",
"1  c #587138",
"2  c #5A7139",
"3  c #597239",
"4  c #5A7238",
"5  c #5A7339",
"6  c #5B7339",
"7  c #59703A",
"8  c #58713A",
"9  c #5A713B",
"0  c #59723B",
"q  c #5B723A",
"w  c #5C733B",
"e  c #5B7538",
"r  c #5B743B",
"t  c #5C7438",
"y  c #5D7539",
"u  c #5D7738",
"i  c #5C7639",
"p  c #5E7638",
"a  c #5C743A",
"s  c #5D753B",
"d  c #5D773A",
"f  c #5E763A",
"g  c #5F773B",
"h  c #5B723C",
"j  c #5A733C",
"k  c #5B723E",
"l  c #5C733D",
"z  c #5C733F",
"x  c #5B743D",
"c  c #5D743C",
"v  c #5C753C",
"b  c #5F743C",
"n  c #5E753D",
"m  c #5D763C",
"M  c #5E763C",
"N  c #5E773D",
"B  c #5F773D",
"V  c #5D743E",
"C  c #5E753F",
"Z  c #5F763E",
"A  c #5F7739",
"S  c #5B7838",
"D  c #5E7839",
"F  c #5F793A",
"G  c #5E783B",
"H  c #5F783F",
"J  c #5F7A39",
"K  c #617B36",
"L  c #60773F",
"P  c #607A3B",
"I  c #60783C",
"U  c #617B3C",
"Y  c #607A3D",
"T  c #60783E",
"R  c #627C3A",
"E  c #5F7640",
"W  c #5F7642",
"Q  c #607741",
"!  c #607743",
"~  c #617840",
"^  c #627941",
"/  c #617A40",
"(  c #627A40",
")  c #627B41",
"_  c #617842",
"`  c #627943",
"'  c #637A42",
"]  c #627B42",
"[  c #647B43",
"{  c #647C42",
"}  c #657D43",
"|  c #647B47",
" . c #677F45",
".. c #657C46",
"X. c #677E46",
"o. c #667F46",
"O. c #657C43",
"+. c #687F47",
"@. c #637948",
"#. c #677D4C",
"$. c #668037",
"%. c #67803A",
"&. c #69823B",
"*. c #688046",
"=. c #698147",
"-. c #6A8248",
";. c #69804A",
":. c #6A814B",
">. c #6C834D",
",. c #6D844C",
"<. c #6D844E",
"1. c #6E8453",
"2. c #6F8652",
"3. c #6F8554",
"4. c #718852",
"5. c #728953",
"6. c #748B57",
"7. c #768D55",
"8. c #758C56",
"9. c #778E5A",
/* pixels */
"= = = o o o = o = o = o $ o # $ + . .         . .           O O ",
"$ $ # o o o o o o o $ o = # # $ # # o . . . . .             O O ",
"# o # o o o o o o $ $ $ $ $ $ $ $ # # o o . O o         O O E O ",
"# # o # o o o o # = = $ = $ $ * # # # # @ o + .         O O E O ",
"o = o o o o = o o = = = & $ # $ # $ $ $ o o o .         O O O @ ",
"o = o o o o o o = = = y = & # # * # o $ # # @ o X       O O @ @ ",
"= o o o o o o = $ = 4 4 & $ % # # $ o $ # # # # o X o . @ @ @ % ",
"= o o o o o o o = $ = = 4 = $ $ $ # o $ # # # @ # o @ X X @ # @ ",
"o o o o o o = = = = = = # # # & o $ # # $ = $ $ @ # o . . @ # o ",
"o = = = = o o = o = b K y $ @ & X @ # * 4 , # * # # @ o o O X X ",
"o o = = = o o = o K R X.Q & # # X $ $ @ $ # # , # # + . .   .   ",
"= = = = = o = o $ I +.+.` & % & q I % @ # # $ , $ # @ .   . X   ",
"K $ = K $ o o = $ K { O.L $ & h ..[ q $ 4 , * # , + + + . . . @ ",
"= K K $ = = = o $ $ y f & $ & h 7.,.L $ , ; , * + + + + o . @ # ",
"K K = K = = o = $ $ $ $ $ $ & h 5.#.& # # ; , , , + + , + + + ; ",
"K $ K $ o = = = $ $ $ = 4 4 4 h h h & & j ; + + , , , + # + , ; ",
"K K o = = o - o = $ = S 4 4 4 4 & & 4 4 & % $ + @ + + , , o + * ",
"o o K = = - o * = y y f b e 4 4 $ $ & y & , 0 , 4 % + # , * * * ",
"K o = = - = = $ = y b W ] b j , & = h b , 4 H W W e , $ * o * S ",
"K K = = - o 4 4 y & 0 E ] ` W E 4 4 f L e m ] *.] H e = * + * = ",
"= = = = = 4 4 b h h h h W | W W y $ e D f b ] ] S S = * o * * S ",
"= = K = 4 = b E E h E ! ;.3.3.;.4 = = D b S D e S = = * = * * $.",
"= = = K p f H T b b E | 2.9.6.<.b = S f D S D D = S * S = = * S ",
"$ = $ K p f f b ] ] [ +.5.8.<.W H S S P F D D D J S S $.$.= = = ",
"K K K K K K I I W W %.*.*.*.*.F P S J D S - S S J J D S S - = = ",
"K = K K K = = K %.; W S %.S W F R D R J S - - $.R R R S - = = = ",
"= K K K = K K K %.%.%.%.S m F F R J J J K S S - $.F J D - = = = ",
"K K K K K K = K E %.%.%.$.S %.%.R R $.R - K - - F %.J J = = = o ",
"R R R K K K K K $.$.$.%.%.%.%.%.%.W %.$.S S $.$.R R K - = = o o ",
"R R R R K K K = $.$.%.%.%.%.$.$.%.%.$.S $.- - - $.R S = = o o = ",
"&.R R R K K K K %.%.%.%.%.%.$.$.%.%.S %.S - - - R R - = = o o o ",
"&.,.R R K K K K $.%.%.$.$.$.$.$.; S %.; - - - - R K K K o o = o "
};
