/* XPM */
static char *_c77694f1d684affc5fb464f6f79df81ftX0zgYAmXvFkB7K[] = {
/* columns rows colors chars-per-pixel */
"32 32 111 2 ",
"   c None",
".  c #00000F",
"X  c #000013",
"o  c #000517",
"O  c #00001B",
"+  c #141625",
"@  c #12172E",
"#  c #161D2F",
"$  c #252435",
"%  c #2A2A38",
"&  c #2F2F39",
"*  c #37353F",
"=  c #6E3938",
"-  c #3B3946",
";  c #3C3A45",
":  c #3F3A46",
">  c #3E3C46",
",  c #3E3A48",
"<  c #3E3C48",
"1  c #3F3C48",
"2  c #403D46",
"3  c #413E49",
"4  c #43404A",
"5  c #45434B",
"6  c #46444A",
"7  c #48454B",
"8  c #58494F",
"9  c #484550",
"0  c #4E4850",
"q  c #695A5F",
"w  c #655D64",
"e  c #6C646A",
"r  c #776F74",
"t  c #766F77",
"y  c #7C7078",
"u  c #836167",
"i  c #81797E",
"p  c #857A81",
"a  c #897D81",
"s  c #978B8F",
"d  c #9A8B8A",
"f  c #9B8C92",
"g  c #9A9294",
"h  c #9C939D",
"j  c #9A949C",
"k  c #A09499",
"l  c #A39B9B",
"z  c #A1999D",
"x  c #A69DA2",
"c  c #AEA3A8",
"v  c #ABABAF",
"b  c #B0A0A2",
"n  c #B4A6AA",
"m  c #B7A9AD",
"M  c #B7AAAF",
"N  c #B1AEAF",
"B  c #ACAFB9",
"V  c #BBACB1",
"C  c #BDAFB5",
"Z  c #BFB2B6",
"A  c #B8B6B9",
"S  c #C3B7BB",
"D  c #C5B9BD",
"F  c #CABBBE",
"G  c #ABB7C7",
"H  c #B7C0D1",
"J  c #BBC3D1",
"K  c #CEC1C3",
"L  c #C2C3CA",
"P  c #D3CCCF",
"I  c #D9CCCE",
"U  c #CDCDD5",
"Y  c #C1CCD9",
"T  c #DCCED2",
"R  c #C3D1DE",
"E  c #D4D6D6",
"W  c #D2D4DC",
"Q  c #DAD9D9",
"!  c #E1D7D9",
"~  c #E4D9DE",
"^  c #EBDDDF",
"/  c #D3DBE7",
"(  c #DEE1E4",
")  c #DDE1E6",
"_  c #DEE3EB",
"`  c #DCE0ED",
"'  c #E1E3E6",
"]  c #E5E6E7",
"[  c #E3E7EA",
"{  c #E4E5EA",
"}  c #E4E7EA",
"|  c #E3E7EC",
" . c #E1E6EE",
".. c #E6E9EA",
"X. c #E9E9EA",
"o. c #E9ECED",
"O. c #EAECED",
"+. c #ECEEEF",
"@. c #F8E9ED",
"#. c #E6E9F1",
"$. c #E4EBF1",
"%. c #E7ECF0",
"&. c #EBEDF2",
"*. c #EDEFF1",
"=. c #EDF0F0",
"-. c #EFF3F7",
";. c #EBF3FA",
":. c #F1F5F6",
">. c #F0F3F9",
",. c #F2F6FA",
"<. c #F5F9FF",
/* pixels */
"                                                                ",
"                                                                ",
"                                                                ",
"                                                                ",
"                                                                ",
"                                    w                           ",
"                        8       #.L h                           ",
"                        y U o.&.>. .`                           ",
"                        W :.} ..( } <.                          ",
"                         .:.+.O.+.' ,._                         ",
"                        [ *.] o.X.+.#./                         ",
"                         .E N =.l A ;.Y                         ",
"                        R v = Q u d ( J                         ",
"                        G B b ! ~ K P J                         ",
"                          j n D I V                             ",
"                            a s f p                             ",
"                            , 0 3 #                             ",
"                            e @ ; t                             ",
"                            w - O x                             ",
"                            % 9 X z                             ",
"                            ; 2 $ i                             ",
"                            2 2 ; -                             ",
"                            6 4 5 7                             ",
"                            + o & .                             ",
"                            c k r g                             ",
"                            @.F C ^                             ",
"                            M   S T                             ",
"                                M Z                             ",
"                                                                ",
"                                                                ",
"                                                                ",
"                                                                "
};
