/* XPM */
static char *_309ee61ef3843b6c34692fcfbb2a219ZZMHMz33xa5wVDWC[] = {
/* columns rows colors chars-per-pixel */
"32 32 156 2 ",
"   c None",
".  c #0F0D06",
"X  c #0D0A08",
"o  c #140905",
"O  c #100F0B",
"+  c #1C170B",
"@  c #1B1A0D",
"#  c #211E12",
"$  c #022713",
"%  c #0D2714",
"&  c #052A16",
"*  c #072F1A",
"=  c #092F1A",
"-  c #132B19",
";  c #04301A",
":  c #09321B",
">  c #0D3A1E",
",  c #103D1F",
"<  c #1B3A1D",
"1  c #332B0F",
"2  c #252713",
"3  c #282413",
"4  c #222D18",
"5  c #322B13",
"6  c #363115",
"7  c #3C3617",
"8  c #3C3619",
"9  c #0E3F20",
"0  c #103F20",
"q  c #403916",
"w  c #433E1A",
"e  c #12411F",
"r  c #0F4521",
"t  c #134421",
"y  c #174C24",
"u  c #184D25",
"i  c #184E28",
"p  c #1A5126",
"a  c #15562C",
"s  c #1B552A",
"d  c #1D592E",
"f  c #1E5C32",
"g  c #205A2D",
"h  c #215E32",
"j  c #17623C",
"k  c #1C623A",
"l  c #156A3C",
"z  c #246335",
"x  c #2A6532",
"c  c #286837",
"v  c #256639",
"b  c #266939",
"n  c #2A6C3C",
"m  c #2E723E",
"M  c #34793D",
"N  c #3D7B3E",
"B  c #464116",
"V  c #46401A",
"C  c #49411A",
"Z  c #4E491F",
"A  c #4D4820",
"S  c #565123",
"D  c #595423",
"F  c #5F5D26",
"G  c #5B5829",
"H  c #625F28",
"J  c #63612B",
"K  c #6E6C34",
"L  c #706F37",
"P  c #276E40",
"I  c #207541",
"U  c #2D7543",
"Y  c #2F7B43",
"T  c #307641",
"R  c #347D44",
"E  c #797740",
"W  c #268242",
"Q  c #368246",
"!  c #398445",
"~  c #378846",
"^  c #358348",
"/  c #3B8548",
"(  c #3D8A49",
")  c #3D924A",
"_  c #40874A",
"`  c #428D4C",
"'  c #43934C",
"]  c #49964F",
"[  c #469B4E",
"{  c #499B4F",
"}  c #4C9652",
"|  c #4E9D52",
" . c #549E55",
".. c #46A04F",
"X. c #49A14F",
"o. c #4DA351",
"O. c #4CA955",
"+. c #52A555",
"@. c #54AA56",
"#. c #58A957",
"$. c #57A458",
"%. c #5DA558",
"&. c #56AB58",
"*. c #5BAD5A",
"=. c #5DB35D",
"-. c #60AE5D",
";. c #62B45E",
":. c #64B661",
">. c #69B561",
",. c #65BA61",
"<. c #6BBC64",
"1. c #72B565",
"2. c #73BD66",
"3. c #7ABF6A",
"4. c #6DC267",
"5. c #71C066",
"6. c #74C369",
"7. c #7CC46C",
"8. c #76C96D",
"9. c #7BCA6E",
"0. c #7FCF71",
"q. c #808047",
"w. c #8B8A4D",
"e. c #959656",
"r. c #82CA6F",
"t. c #8AC771",
"y. c #86CE72",
"u. c #88CF73",
"i. c #85D274",
"p. c #8ED577",
"a. c #8AD476",
"s. c #8DD678",
"d. c #8FD679",
"f. c #87DF7A",
"g. c #8FDA7A",
"h. c #8BDE7A",
"j. c #91D779",
"k. c #91D97A",
"l. c #93D97A",
"z. c #92DA7A",
"x. c #95D97B",
"c. c #96DB7C",
"v. c #95DD7D",
"b. c #96DC7C",
"n. c #96DE7D",
"m. c #99DD7D",
"M. c #92E17D",
"N. c #9AE17F",
"B. c #99E380",
"V. c #9EE281",
"C. c #A6E685",
"Z. c #A3E382",
"A. c #A7E885",
"S. c #ABEB88",
"D. c #ADED8A",
"F. c #A1F388",
/* pixels */
"                                                                ",
"                        j ;.4.a.Z.                              ",
"                    o.  ! =.:.F.D.                              ",
"                p ( } | ` o.,.k.g.d.                            ",
"                b ^ ' +.U ' ' =.,.4.        X.                  ",
"              s z Y ' } U / R } =.=.h.A.2.@.,.M.i.9.k.          ",
"              g s ! ' } $.Y ` / | =.j.b.M.6.+.7.8.i.k.k.D.      ",
"            s m z ! ) ,.>.( / R [ [ :.<.:.o.&.=.;.7.4.f.b.      ",
"            b R z Y ' :.:.$.I l ! Y | @.W ' <.#.;.N.j.x.B.c.C.  ",
"            c a N  .b  .~ #.7.>.( 1.[ %.7.;.u.<.O.<.i.8.a.M.k.  ",
"            g k #.4.1.t.) ;.p.0.i.b.6.C.l.9.k.y.y.u.=.@.y.a.,.<.",
"        p v R ( *.;.B.Z.>.@.:.:.7.7.a.b.;.;.r.9.c.3.O.@.o.=.@.  ",
"      $ s v m ( o.:.a.7.0.2.@.2.g.8.a.b.7.c.i.9.x.u.u.6...4.    ",
"    & t z z U R ' ~ =.:.| ) o.,.i.b.d.d.d.V.d.c.a.a.V.y.O.@.    ",
"    & t p z ! / R ( ` $.) ' =.=.=.<.=.l.d.6.4.=.7.m.9.,.+.o.    ",
"    > e i m Q | -.:.} P ( { [ [ *.=.@.>.,.+.;.#.=.<.=.+.!       ",
"  * > t p z P ( | ' o._  .' o.( ' =.#.o.=. .*.;.[ &.=.x         ",
"  : > t t h v f ! ( ( ,.<.M ! [ o.:.;.*.#.+.' ,.=.=.;.          ",
"    > t , u p s z ^ ' <.:.M v ( +.4.8.4.{ ` ' @.@.O.@.          ",
"    = : = > t p h n T ' ! c m ~ %.;.#.=.=.' ( R ^ X.X.          ",
"    = : * , t e s z f R R e c b Q ( ) ! m c d d v               ",
"      : : : : > t u t i s s h d z M ! n h z p                   ",
"        : = * > > > * : t p y p i d f s z U n                   ",
"                : = = : > > , i p z g u s z                     ",
"                      : : * > t t r : *                         ",
"                          % * ; r < - -                         ",
"                          o @ 4 2 C Z w                         ",
"                          # 5 C S J K H                         ",
"                        @ 3 B 7 A F L w.                        ",
"                        # 7 7 3 Z w B e.E                       ",
"                      3 7 6 O 1 S S 5 G w.                      ",
"                      7 6 X O + w D 6 1 K q.                    "
};
